<svg xmlns="http://www.w3.org/2000/svg" data-name="Layer 1" viewBox="0 0 100 100" x="0px" y="0px"><title>38</title><path d="M84.63885,6.12091A3.82721,3.82721,0,0,0,81.93268,5H8.82709A3.82708,3.82708,0,0,0,5,8.82709V91.17291A3.82708,3.82708,0,0,0,8.82709,95H91.17291A3.82708,3.82708,0,0,0,95,91.17291V18.06744a3.82711,3.82711,0,0,0-1.12091-2.70617Zm-55.0888,5.37793A.49883.49883,0,0,1,30.04889,11H69.95111a.49883.49883,0,0,1,.49884.49884V32.25952a.49883.49883,0,0,1-.49884.49884H30.04889a.49883.49883,0,0,1-.49884-.49884Zm50.7124,69.3316a2.5166,2.5166,0,0,1-2.5166,2.51667H22.25421a2.51661,2.51661,0,0,1-2.51666-2.51667V51.275a2.5166,2.5166,0,0,1,2.51666-2.5166H77.74585a2.51659,2.51659,0,0,1,2.5166,2.5166Z"/><rect x="51.59766" y="14.50177" width="11.125" height="14.75482" rx="0.49884"/><path d="M68.69232,69.55273H31.30756a2.5,2.5,0,1,0,0,5H68.69232a2.5,2.5,0,0,0,0-5Z"/><path d="M68.69232,57.55273H31.30756a2.5,2.5,0,1,0,0,5H68.69232a2.5,2.5,0,0,0,0-5Z"/></svg>