<svg xmlns="http://www.w3.org/2000/svg" xmlns:xlink="http://www.w3.org/1999/xlink" version="1.1" x="0px" y="0px" viewBox="0 0 55 55" style="enable-background:new 0 0 55 55;" xml:space="preserve"><style type="text/css">
	.st0{fill:none;}
</style><g><path d="M51.6500244,22.7799683l-6.1800537-0.9099731C45.1400146,20.789978,44.710022,19.75,44.1900024,18.7699585   l3.7199707-5.0100098c0.3000488-0.3899536,0.2600098-0.9499512-0.0899658-1.2999878L42.539978,7.1900024   c-0.3499756-0.3600464-0.9099731-0.4000244-1.2999878-0.1000366l-5.0100098,3.7200317   C35.25,10.289978,34.210022,9.8599854,33.1300049,9.5299683l-0.9100342-6.1699829   C32.1500244,2.8599854,31.7299805,2.5,31.2299805,2.5h-7.4599609c-0.5,0-0.9200439,0.3599854-0.9899902,0.8599854   l-0.9100342,6.1699829C20.789978,9.8599854,19.75,10.289978,18.7700195,10.8099976l-5.0100098-3.7200317   c-0.4000244-0.2999878-0.9500122-0.25-1.2999878,0.1000366l-5.2800293,5.2699585   c-0.3499756,0.3500366-0.3900146,0.9100342-0.0899658,1.2999878l3.7199707,5.0100098   C10.289978,19.75,9.8599854,20.789978,9.5300293,21.8699951l-6.1800537,0.9099731   C2.8599854,22.8499756,2.5,23.2699585,2.5,23.7699585v7.460022c0,0.5,0.3599854,0.9199829,0.8499756,0.9899902l6.1800537,0.9100342   C9.8599854,34.2099609,10.289978,35.25,10.8099976,36.2299805l-3.7199707,5.0100098   c-0.3000488,0.3900146-0.2600098,0.9500122,0.0899658,1.2999878l5.2800293,5.2799683   c0.3499756,0.3500366,0.9099731,0.3900146,1.2999878,0.0900269l5.0100098-3.7199707   c0.9799805,0.5199585,2.0199585,0.9499512,3.0999756,1.2799683l0.9100342,6.1799927   C22.8499756,52.1399536,23.2700195,52.5,23.7700195,52.5h7.4599609c0.5,0,0.9200439-0.3600464,0.9899902-0.8500366   l0.9100342-6.1799927c1.0800171-0.3300171,2.1199951-0.7600098,3.0999756-1.2799683l5.0100098,3.7199707   c0.3900146,0.2999878,0.9500122,0.2600098,1.2999878-0.0900269l5.2800293-5.2799683   c0.3499756-0.3499756,0.3900146-0.9099731,0.0899658-1.2999878l-3.7199707-5.0100098   c0.5200195-0.9799805,0.9500122-2.0200195,1.2799683-3.0999756l6.1800537-0.9100342   C52.1400146,32.1499634,52.5,31.7299805,52.5,31.2299805v-7.460022C52.5,23.2699585,52.1400146,22.8499756,51.6500244,22.7799683z    M27.5,40.1399536c-6.9699707,0-12.6400146-5.6699829-12.6400146-12.6399536   c0-6.9700317,5.6700439-12.6400146,12.6400146-12.6400146S40.1400146,20.5299683,40.1400146,27.5   C40.1400146,34.4699707,34.4699707,40.1399536,27.5,40.1399536z"/></g></svg>